<?xml version="1.0" encoding="UTF-8" standalone="no"?>
<!DOCTYPE svg PUBLIC "-//W3C//DTD SVG 1.1//EN" "http://www.w3.org/Graphics/SVG/1.1/DTD/svg11.dtd">
<svg width="100%" height="100%" viewBox="0 0 32 32" version="1.1" xmlns="http://www.w3.org/2000/svg" xmlns:xlink="http://www.w3.org/1999/xlink" xml:space="preserve" xmlns:serif="http://www.serif.com/" style="fill-rule:evenodd;clip-rule:evenodd;stroke-linejoin:round;stroke-miterlimit:2;">
    <rect x="0" y="0" width="32" height="32" style="fill:none;"/>
    <g>
        <rect x="4" y="4" width="24" height="24" style="fill:rgb(247,57,74);"/>
        <path d="M21.765,13.008l-4.181,5.825c-0.192,0.27 -0.428,0.477 -0.709,0.62c-0.28,0.144 -0.581,0.215 -0.904,0.215c-0.322,0 -0.624,-0.073 -0.904,-0.221c-0.28,-0.147 -0.516,-0.352 -0.708,-0.614l-4.205,-5.825l0,9.13l-2.154,0l0,-12.276l1.002,-0c0.522,-0 1.022,0.122 1.498,0.368c0.476,0.246 0.871,0.586 1.186,1.02l4.32,6.022l4.285,-6.009c0.307,-0.443 0.701,-0.787 1.181,-1.033c0.48,-0.246 0.984,-0.368 1.514,-0.368l1.014,-0l-0,12.276l-2.235,0l0,-9.13Z" style="fill:white;fill-rule:nonzero;"/>
    </g>
</svg>
