<?xml version="1.0" encoding="UTF-8" standalone="no"?>
<!DOCTYPE svg PUBLIC "-//W3C//DTD SVG 1.1//EN" "http://www.w3.org/Graphics/SVG/1.1/DTD/svg11.dtd">
<svg width="100%" height="100%" viewBox="0 0 32 32" version="1.1" xmlns="http://www.w3.org/2000/svg" xmlns:xlink="http://www.w3.org/1999/xlink" xml:space="preserve" xmlns:serif="http://www.serif.com/" style="fill-rule:evenodd;clip-rule:evenodd;stroke-linejoin:round;stroke-miterlimit:2;">
    <rect x="0" y="0" width="32" height="32" style="fill:none;"/>
    <g>
        <rect x="3" y="2" width="22" height="22" style="fill:rgb(247,57,74);"/>
        <path d="M19.285,10.257l-3.833,5.34c-0.176,0.247 -0.393,0.437 -0.65,0.568c-0.256,0.132 -0.533,0.198 -0.828,0.198c-0.296,-0 -0.572,-0.068 -0.829,-0.203c-0.257,-0.135 -0.474,-0.323 -0.65,-0.563l-3.854,-5.34l0,8.37l-1.974,-0l-0,-11.254l0.918,0c0.479,0 0.937,0.113 1.373,0.338c0.436,0.225 0.799,0.537 1.088,0.935l3.959,5.52l3.928,-5.509c0.282,-0.405 0.643,-0.721 1.083,-0.946c0.44,-0.225 0.902,-0.338 1.388,-0.338l0.929,0l0,11.254l-2.048,-0l-0,-8.37Z" style="fill:white;fill-rule:nonzero;"/>
    </g>
    <g>
        <rect x="16" y="15.788" width="14" height="14" style="fill:rgb(247,223,30);fill-rule:nonzero;"/>
        <path d="M17.617,25.205l1.249,-0.756c0.242,0.428 0.461,0.789 0.987,0.789c0.505,0 0.823,-0.197 0.823,-0.964l-0,-5.219l1.534,-0l0,5.24c0,1.59 -0.931,2.314 -2.291,2.314c-1.228,-0 -1.941,-0.636 -2.302,-1.404m5.427,-0.164l1.25,-0.724c0.329,0.538 0.757,0.932 1.513,0.932c0.636,0 1.042,-0.318 1.042,-0.756c-0,-0.526 -0.417,-0.713 -1.119,-1.02l-0.383,-0.164c-1.108,-0.472 -1.842,-1.064 -1.842,-2.314c-0,-1.151 0.877,-2.028 2.247,-2.028c0.976,-0 1.678,0.34 2.182,1.228l-1.195,0.767c-0.263,-0.471 -0.548,-0.657 -0.987,-0.657c-0.449,-0 -0.734,0.285 -0.734,0.657c-0,0.461 0.285,0.647 0.942,0.932l0.384,0.165c1.305,0.559 2.039,1.129 2.039,2.412c0,1.381 -1.085,2.138 -2.543,2.138c-1.425,-0 -2.346,-0.68 -2.796,-1.568" style="fill-rule:nonzero;"/>
    </g>
</svg>
